:SAMPLES-PER-SECOND 30
:FRAME-RANGE 1-663
:FULLY-SPECIFIED
:DEGREES
187
root  -10.591 30.7447 140.993 175.762 11.9711 176.016
RightUpLeg  -36.3366 -9.21208 -1.86412
RightLeg  73.2008 -2.35212 -9.78595
RightFoot  -30.7794 0.26396 2.76336
RightToes  -3.4386e-010 1.2921e-014 -6.02303e-014
Spine  74.8655 -0.893922 -1.61183
Spine1  23.3999 1.43738 -6.80385
HEad  -24.5355 -12.727 -6.02765
LeftShoulder1  4.28724 -23.3619 -8.76873
LeftArm  -46.2808 -57.0355 -23.045
LeftForeArm  2.21746 -24.8788 -5.21067
LeftHand  -0.145625 -3.0101 2.24355
RightShoulder  1.63135 10.1023 4.36607
RightArm  -85.4377 64.1852 10.9485
RightForeArm  24.9755 17.4793 -5.28134
RightHand  0.187621 7.96577 1.25037
LeftUpLeg  -34.3536 -4.98783 -2.6946
LeftLeg  69.4268 3.77371 11.9324
LeftFoot  -28.4833 -1.18792 -9.00297
LeftToes  -7.12384e-010 -7.51861e-011 -8.34901e-011
188
root  -10.5618 31.4244 140.88 -177.141 11.5328 176.686
RightUpLeg  -42.0725 -9.73177 0.0308235
RightLeg  69.495 -3.00069 -9.63619
RightFoot  -28.379 0.167673 2.40601
RightToes  -3.4386e-010 1.2921e-014 -6.02303e-014
Spine  68.4237 -1.17162 -0.606803
Spine1  21.7003 1.44849 -5.26434
HEad  -23.5056 -13.4047 -7.02391
LeftShoulder1  4.8146 -23.0681 -11.188
LeftArm  -43.0037 -56.9576 -24.3429
LeftForeArm  2.21201 -24.9283 -5.22203
LeftHand  -0.181285 -3.94747 2.5231
RightShoulder  1.53264 9.92095 3.70759
RightArm  -80.7193 63.5671 13.817
RightForeArm  23.4111 16.7797 -5.85402
RightHand  0.137784 8.00746 0.813986
LeftUpLeg  -40.2043 -5.72503 -1.30971
LeftLeg  65.9776 4.53503 11.7807
LeftFoot  -26.2036 -0.935701 -8.36837
LeftToes  -7.12384e-010 -7.51861e-011 -8.34901e-011
189
root  -10.533 32.0721 140.747 -169.941 11.2715 177.173
RightUpLeg  -47.8282 -9.83562 1.83481
RightLeg  65.5697 -3.67327 -9.4252
RightFoot  -25.9213 0.0282844 1.59526
RightToes  -3.4386e-010 1.2921e-014 -6.02303e-014
Spine  61.7411 -1.70321 -0.149589
Spine1  19.7721 1.15781 -5.41933
HEad  -22.6305 -12.4971 -6.82053
LeftShoulder1  4.69116 -21.6607 -11.8005
LeftArm  -39.3993 -56.2547 -26.0083
LeftForeArm  1.46229 -24.843 -5.24172
LeftHand  -0.139573 -3.6859 2.04417
RightShoulder  1.68009 10.4272 4.44431
RightArm  -76.3524 63.4718 17.2982
RightForeArm  22.6628 16.3723 -6.05152
RightHand  0.126137 8.14408 0.699772
LeftUpLeg  -45.9725 -5.92646 -0.0135265
LeftLeg  62.164 5.29557 11.4099
LeftFoot  -23.888 -0.702264 -7.68264
LeftToes  -7.12384e-010 -7.51861e-011 -8.34901e-011
190
root  -10.5152 32.6909 140.619 -163.461 11.2321 177.69
RightUpLeg  -52.5982 -9.42725 3.45274
RightLeg  61.3601 -4.35125 -9.0979
RightFoot  -23.4573 -0.0282607 1.23113
RightToes  -3.4386e-010 1.2921e-014 -6.02303e-014
Spine  55.1193 -2.08881 0.330641
Spine1  17.9526 1.035 -5.7539
HEad  -21.3595 -11.7249 -6.61047
LeftShoulder1  4.59127 -20.295 -12.5529
LeftArm  -35.245 -55.0217 -28.1853
LeftForeArm  0.785717 -25.085 -5.33087
LeftHand  -0.349507 -4.99519 4.20959
RightShoulder  1.86034 10.8935 5.42889
RightArm  -70.9296 63.0415 21.1216
RightForeArm  21.6785 15.9772 -5.97436
RightHand  0.0779113 7.80815 0.310765
LeftUpLeg  -50.764 -5.97354 1.28738
LeftLeg  58.1158 6.14161 11.0882
LeftFoot  -21.5307 -0.530263 -7.38706
LeftToes  -7.12384e-010 -7.51861e-011 -8.34901e-011
191
root  -10.4915 33.2663 140.516 -157.812 11.1906 178.098
RightUpLeg  -56.4489 -8.90382 4.78507
RightLeg  57.1453 -5.02741 -8.76689
RightFoot  -20.9998 -0.0827498 0.703179
RightToes  -3.4386e-010 1.2921e-014 -6.02303e-014
Spine  48.8786 -2.29966 0.81821
Spine1  16.038 0.912792 -5.92989
HEad  -19.6299 -10.9237 -6.69086
LeftShoulder1  4.52071 -19.0759 -13.389
LeftArm  -30.9967 -53.6822 -30.5516
LeftForeArm  -0.298951 -24.6103 -5.28011
LeftHand  -0.28428 -4.75198 3.55
RightShoulder  1.99709 11.045 6.34951
RightArm  -64.6566 62.4678 25.8126
RightForeArm  20.3081 15.3474 -6.04906
RightHand  0.0544823 7.76697 0.107578
LeftUpLeg  -54.6272 -5.51988 2.23287
LeftLeg  53.9541 6.81481 10.446
LeftFoot  -19.1494 -0.351418 -6.82407
LeftToes  -7.12384e-010 -7.51861e-011 -8.34901e-011
192
root  -10.4706 33.7898 140.417 -153.087 11.1558 178.487
RightUpLeg  -59.2204 -8.02803 5.7005
RightLeg  53.0144 -5.87086 -8.68133
RightFoot  -18.7412 -0.0873482 0.6105
RightToes  -3.4386e-010 1.2921e-014 -6.02303e-014
Spine  43.0614 -2.32632 1.19774
Spine1  14.1019 0.767598 -5.76232
HEad  -17.6644 -10.2057 -6.74309
LeftShoulder1  4.26494 -17.6006 -13.6294
LeftArm  -26.7167 -51.3789 -34.6834
LeftForeArm  -0.354582 -24.9946 -5.3691
LeftHand  -0.238898 -4.46307 3.10182
RightShoulder  2.08228 11.3447 6.68531
RightArm  -58.331 60.9462 30.9766
RightForeArm  20.0756 14.7545 -5.98309
RightHand  0.0344854 8.28002 -0.0894172
LeftUpLeg  -57.4922 -5.26725 3.12463
LeftLeg  49.918 7.60023 10.024
LeftFoot  -16.9468 -0.210394 -6.36563
LeftToes  -7.12384e-010 -7.51861e-011 -8.34901e-011
193
root  -10.4584 34.2481 140.322 -149.305 11.1209 178.855
RightUpLeg  -60.9869 -7.08623 6.2387
RightLeg  49.0023 -6.74364 -8.57577
RightFoot  -16.7324 -0.0880175 0.535394
RightToes  -3.4386e-010 1.2921e-014 -6.02303e-014
Spine  37.6063 -2.26103 1.62856
Spine1  12.6827 0.735491 -5.63721
HEad  -15.7513 -9.67534 -6.6247
LeftShoulder1  4.11289 -16.6714 -13.8462
LeftArm  -23.2155 -48.6612 -37.6766
LeftForeArm  -0.565301 -25.2564 -5.43896
LeftHand  -0.575026 -6.50345 5.94769
RightShoulder  2.15937 11.2223 7.4172
RightArm  -52.3007 59.433 35.4608
RightForeArm  19.0775 14.1778 -5.60604
RightHand  -0.0170023 8.09461 -0.523956
LeftUpLeg  -59.3798 -5.26566 4.04799
LeftLeg  46.0556 8.53327 9.78747
LeftFoot  -15.0576 -0.110839 -6.19115
LeftToes  -7.12384e-010 -7.51861e-011 -8.34901e-011
194
root  -10.4419 34.8198 140.223 -147.857 10.0761 -178.776
RightUpLeg  -58.7883 -5.87279 8.47254
RightLeg  43.5356 -8.24493 -8.59214
RightFoot  -14.6821 -0.0936511 0.19549
RightToes  -3.4386e-010 1.2921e-014 -6.02303e-014
Spine  35.5183 -3.02437 4.59346
Spine1  10.2929 1.18396 -6.669
HEad  -13.2869 -9.29365 -6.36137
LeftShoulder1  3.97237 -15.8435 -14.0265
LeftArm  -19.0407 -45.961 -40.0311
LeftForeArm  -2.13541 -25.1678 -5.49899
LeftHand  -0.287468 -4.87014 3.55207
RightShoulder  2.21683 11.0833 8.02697
RightArm  -47.8398 57.3585 39.9361
RightForeArm  19.8277 14.0201 -5.03687
RightHand  -0.0250952 8.39865 -0.59414
LeftUpLeg  -58.484 -4.07378 6.36018
LeftLeg  42.3731 8.40297 8.52954
LeftFoot  -13.6998 -0.0295153 -5.41677
LeftToes  -7.12384e-010 -7.51861e-011 -8.34901e-011
195
root  -10.4664 35.465 140.048 -148.852 10.2243 -178.847
RightUpLeg  -55.0832 -6.27433 8.22577
RightLeg  38.8709 -8.61505 -7.64025
RightFoot  -12.8433 -0.0943196 -0.56571
RightToes  -3.4386e-010 1.2921e-014 -6.02303e-014
Spine  35.8199 -3.09435 4.54701
Spine1  7.61998 0.765476 -6.46808
HEad  -11.0346 -8.80428 -6.29129
LeftShoulder1  3.7375 -14.6461 -14.1203
LeftArm  -16.283 -42.8544 -42.9458
LeftForeArm  -2.02859 -25.5571 -5.58209
LeftHand  -0.241149 -4.52374 3.11288
RightShoulder  2.20383 11.2056 7.78081
RightArm  -44.8834 54.7879 44.2736
RightForeArm  20.957 14.0407 -4.58861
RightHand  -0.0910622 7.92374 -1.16656
LeftUpLeg  -54.7076 -4.61822 6.26976
LeftLeg  37.7037 9.4712 8.14873
LeftFoot  -11.8307 0.0487532 -5.1747
LeftToes  -7.12384e-010 -7.51861e-011 -8.34901e-011
196
root  -10.5088 35.994 139.835 -150.011 10.1745 -179.349
RightUpLeg  -51.7324 -6.90673 7.4517
RightLeg  35.1494 -8.90829 -6.9304
RightFoot  -11.4492 -0.0779784 -0.510427
RightToes  -3.4386e-010 1.2921e-014 -6.02303e-014
Spine  34.5848 -2.88534 4.36964
Spine1  6.92634 0.518315 -5.66814
HEad  -9.1072 -8.75999 -6.5659
LeftShoulder1  3.88861 -14.4338 -15.3293
LeftArm  -13.7424 -40.1944 -44.376
LeftForeArm  -2.01148 -25.7468 -5.6246
LeftHand  -0.239743 -4.45657 3.11343
RightShoulder  2.30026 10.8726 8.9432
RightArm  -41.7029 52.9275 46.068
RightForeArm  21.1335 13.4916 -4.13491
RightHand  -0.134887 7.67803 -1.56503
LeftUpLeg  -50.9781 -5.52114 5.77289
LeftLeg  33.2905 10.4613 7.67418
LeftFoot  -10.2682 0.105318 -4.67412
LeftToes  -7.12384e-010 -7.51861e-011 -8.34901e-011
197
root  -10.5438 36.451 139.586 -151.377 10.4055 -179.68
RightUpLeg  -48.1594 -7.07188 6.60557
RightLeg  31.7249 -9.41018 -6.45513
RightFoot  -10.3598 -0.0670557 -0.361402
RightToes  -3.4386e-010 1.2921e-014 -6.02303e-014
Spine  32.9157 -2.84072 4.28055
Spine1  7.10636 0.355108 -5.5293
HEad  -7.35621 -8.39493 -6.55818
LeftShoulder1  3.84361 -14.1525 -15.4362
LeftArm  -12.1692 -37.3934 -45.6792
LeftForeArm  -2.08642 -25.885 -5.66012
LeftHand  -0.210293 -4.46042 2.76529
RightShoulder  2.37008 10.5933 9.86919
RightArm  -39.0742 51.1517 48.0236
RightForeArm  21.8126 13.176 -3.5454
RightHand  -0.149813 7.37653 -1.72273
LeftUpLeg  -47.115 -6.18167 5.27923
LeftLeg  29.3265 11.4655 7.2373
LeftFoot  -8.98318 0.138983 -4.13515
LeftToes  -7.12384e-010 -7.51861e-011 -8.34901e-011
198
root  -10.5808 36.8249 139.308 -152.791 10.5676 -179.857
RightUpLeg  -44.5784 -6.7437 5.6648
RightLeg  28.6181 -10.1729 -6.18357
RightFoot  -9.44627 -0.0605567 -0.207691
RightToes  -3.4386e-010 1.2921e-014 -6.02303e-014
Spine  32.4041 -2.56294 4.03831
Spine1  5.32501 0.203515 -4.70293
HEad  -5.68259 -8.1493 -6.90075
LeftShoulder1  3.92589 -13.7805 -16.4879
LeftArm  -8.86981 -34.5059 -46.6934
LeftForeArm  -3.24183 -25.4634 -5.62229
LeftHand  -0.229488 -4.62375 2.9526
RightShoulder  2.43449 10.3592 10.7205
RightArm  -36.6056 48.4385 49.657
RightForeArm  22.4636 12.7493 -2.80364
RightHand  -0.196338 6.8724 -2.2075
LeftUpLeg  -43.4294 -6.41923 4.69947
LeftLeg  25.9149 11.9451 6.58939
LeftFoot  -7.99671 0.164399 -3.98765
LeftToes  -7.12384e-010 -7.51861e-011 -8.34901e-011
199
root  -10.6356 37.1128 138.989 -154.134 10.8051 -179.756
RightUpLeg  -41.1886 -6.71902 5.19338
RightLeg  25.8823 -10.4057 -5.66873
RightFoot  -8.87422 -0.0597525 -0.0179072
RightToes  -3.4386e-010 1.2921e-014 -6.02303e-014
Spine  31.2982 -2.2545 4.10434
Spine1  4.37673 0.148071 -3.90048
HEad  -3.99149 -7.64013 -7.32132
LeftShoulder1  3.97444 -13.461 -17.2817
LeftArm  -7.00579 -31.1267 -47.6026
LeftForeArm  -3.32358 -25.9993 -5.74946
LeftHand  -0.196634 -4.55172 2.58589
RightShoulder  2.46053 9.94172 11.5628
RightArm  -34.6216 46.0232 51.0243
RightForeArm  23.3058 12.3058 -2.13444
RightHand  -0.210722 6.88016 -2.34224
LeftUpLeg  -40.2045 -6.62224 4.36727
LeftLeg  23.5818 12.5552 6.26703
LeftFoot  -7.47653 0.163832 -3.52596
LeftToes  -7.12384e-010 -7.51861e-011 -8.34901e-011
